PathFileType	4	(X/Y/Z)	D:\TRACE\v60_Jaco2_6-2-23\BothDRS_Motion3_6-platform.trc
DataRate	CameraRate	NumFrames	NumMarkers	Units	OrigDataRate	OrigDataStartFrame	OrigNumFrames
100.00	100.00	      72	5	mm	100.00	1	      7000
Frame#	Time	Left_Front			Right_Front			Left_Aft			Right_Aft			Post			
		X1	Y1	Z1	X2	Y2	Z2	X3	Y3	Z3	X4	Y4	Z4	X5	Y5	Z5	

1	0.000	-814.70081	128.48384	-611.81189	755.79236	125.74191	-588.86627	-745.33679	-73.85835	506.81491	668.70789	-92.26768	608.14246	-22.11348	1462.13757	-684.80017	
2	0.010	-814.69043	128.49750	-611.81519	755.77124	125.74576	-588.89307	-744.98419	-74.11772	506.68228	668.70868	-92.28850	608.16772	-22.13060	1462.12097	-684.80768	
3	0.020	-814.68323	128.47182	-611.80005	755.78455	125.73631	-588.88196	-745.31281	-73.80898	506.82541	668.69537	-92.29850	608.16174	-22.18441	1462.10938	-684.81989	
4	0.030	-814.68524	128.48886	-611.82257	755.77271	125.72947	-588.88672	-745.28699	-73.85799	506.82565	668.66638	-92.30392	608.20032	-22.24408	1462.07544	-684.82251	
5	0.040	-814.69293	128.48938	-611.83710	755.78918	125.76093	-588.86420	-745.31512	-73.80132	506.83304	668.69336	-92.28463	608.18353	-22.16075	1462.11633	-684.82813	
6	0.050	-814.72064	128.50549	-611.83636	755.78009	125.75933	-588.92712	-745.33386	-73.81757	506.80576	668.69604	-92.28796	608.16272	-22.15562	1462.12878	-684.78528	
7	0.060	-814.75238	128.56357	-611.84937	755.79114	125.77267	-588.88263	-744.96393	-74.14260	506.67609	668.71814	-92.27650	608.16315	-22.11795	1462.14539	-684.79718	
8	0.070	-814.68475	128.48367	-611.82306	755.80017	125.77012	-588.87219	-745.29871	-73.81473	506.80746	668.74756	-92.26686	608.17584	-22.14023	1462.13770	-684.81036	
9	0.080	-814.68195	128.47458	-611.79163	755.77258	125.73078	-588.89960	-744.99054	-74.13393	506.67090	668.71521	-92.29292	608.18439	-22.17639	1462.10815	-684.82971	
10	0.090	-814.67462	128.44731	-611.80951	755.79053	125.72095	-588.88239	-744.97729	-74.14388	506.68527	668.71942	-92.27885	608.15741	-22.18711	1462.09729	-684.82611	
11	0.100	-814.66339	128.44377	-611.82208	755.77228	125.71111	-588.90955	-744.98480	-74.14930	506.64136	668.73895	-92.26736	608.18658	-22.18412	1462.10254	-684.80072	
12	0.110	-814.69196	128.46992	-611.80713	755.80939	125.72572	-588.86176	-744.98285	-74.11677	506.65845	668.67987	-92.29356	608.19452	-22.14985	1462.11401	-684.81384	
13	0.120	-814.67200	128.43604	-611.80902	755.79559	125.72340	-588.88110	-744.95459	-74.19627	506.70895	668.69617	-92.31027	608.15088	-22.12324	1462.13574	-684.80579	
14	0.130	-814.65082	128.41949	-611.82178	755.78711	125.72608	-588.91565	-744.98932	-74.17003	506.70703	668.67114	-92.28819	608.18164	-22.17555	1462.13892	-684.78839	
15	0.140	-814.71820	128.47705	-611.77399	755.76788	125.70418	-588.89380	-745.34326	-73.80028	506.87103	668.68994	-92.29532	608.16046	-22.17430	1462.10681	-684.81122	
16	0.150	-814.70667	128.48421	-611.80640	755.77460	125.70512	-588.88330	-745.03735	-74.16267	506.67026	668.66833	-92.31030	608.14960	-22.19577	1462.11633	-684.78571	
17	0.160	-814.67175	128.45714	-611.78949	755.77362	125.73470	-588.89862	-745.29053	-73.84210	506.81577	668.73041	-92.30002	608.19073	-22.19444	1462.10486	-684.82349	
18	0.170	-814.67798	128.47334	-611.80927	755.77374	125.73725	-588.90979	-745.28290	-73.83890	506.82980	668.68115	-92.29408	608.17200	-22.12789	1462.14807	-684.80573	
19	0.180	-814.67920	128.46733	-611.85516	755.78644	125.73448	-588.91473	-744.96796	-74.15951	506.71442	668.69855	-92.28334	608.14612	-22.14587	1462.14160	-684.77576	
20	0.190	-814.68616	128.48376	-611.82013	755.79633	125.71542	-588.89545	-745.01379	-74.14593	506.67218	668.66754	-92.30665	608.16400	-22.17964	1462.09790	-684.81042	
21	0.200	-814.66595	128.46419	-611.84741	755.76294	125.72550	-588.89954	-745.02948	-74.09679	506.69040	668.69141	-92.30220	608.16730	-22.19172	1462.10071	-684.83710	
22	0.210	-814.73907	128.51460	-611.80109	755.80255	125.73030	-588.87122	-744.97290	-74.15423	506.68121	668.70392	-92.29639	608.17249	-22.13668	1462.11780	-684.85785	
23	0.220	-814.66107	128.46416	-611.79779	755.76642	125.73515	-588.88397	-744.97937	-74.16463	506.71313	668.68042	-92.30736	608.16467	-22.12499	1462.12476	-684.82953	
24	0.230	-814.71454	128.51465	-611.76910	755.78162	125.73052	-588.90845	-745.32654	-73.85629	506.80075	668.68658	-92.29305	608.18365	-22.11736	1462.14355	-684.81250	
25	0.240	-814.69257	128.48805	-611.79865	755.75806	125.73838	-588.92346	-745.28967	-73.84257	506.80328	668.73492	-92.28371	608.19525	-22.10091	1462.13831	-684.84674	
26	0.250	-814.67334	128.46758	-611.79639	755.77582	125.73708	-588.86823	-745.31958	-73.82956	506.83441	668.72345	-92.28768	608.18921	-22.12931	1462.12549	-684.79810	
27	0.260	-814.68097	128.45767	-611.79242	755.77295	125.71954	-588.87323	-745.29938	-73.84093	506.83371	668.70001	-92.31434	608.18433	-22.13661	1462.12537	-684.82404	
28	0.270	-814.66876	128.43758	-611.81537	755.79230	125.73074	-588.86603	-744.95563	-74.18261	506.73016	668.68060	-92.30127	608.17761	-22.18600	1462.11023	-684.83173	
29	0.280	-814.67078	128.46980	-611.80725	755.78217	125.73023	-588.89746	-745.30170	-73.85754	506.82657	668.67920	-92.30413	608.16571	-22.16412	1462.11816	-684.81750	
30	0.290	-814.66748	128.47208	-611.81171	755.79901	125.70842	-588.89325	-744.96655	-74.14738	506.67389	668.68750	-92.32475	608.17871	-22.14683	1462.13147	-684.78632	
31	0.300	-814.65497	128.43652	-611.83191	755.77911	125.71389	-588.89276	-745.31824	-73.82954	506.81308	668.70905	-92.32333	608.17993	-22.15072	1462.09521	-684.82751	
32	0.310	-814.66766	128.44797	-611.82562	755.77759	125.70677	-588.89227	-745.33197	-73.85447	506.79974	668.70923	-92.31358	608.17688	-22.20299	1462.11670	-684.81512	
33	0.320	-814.68549	128.44856	-611.84869	755.78162	125.71618	-588.88452	-744.99701	-74.21879	506.74911	668.71594	-92.31381	608.15289	-22.15834	1462.08752	-684.81055	
34	0.330	-814.65540	128.43915	-611.81293	755.77985	125.73658	-588.87494	-745.31366	-73.82908	506.81958	668.73553	-92.30456	608.17145	-22.19105	1462.09534	-684.80658	
35	0.340	-814.71088	128.48030	-611.83130	755.77368	125.72462	-588.89331	-744.94147	-74.19198	506.68933	668.67053	-92.30294	608.18402	-22.15702	1462.13501	-684.78387	
36	0.350	-814.66907	128.46660	-611.84277	755.79083	125.73769	-588.88385	-744.93610	-74.17077	506.67560	668.70068	-92.28104	608.19440	-22.17328	1462.10791	-684.82861	
37	0.360	-814.70209	128.48854	-611.83350	755.78448	125.74592	-588.88922	-745.32599	-73.82365	506.79681	668.69061	-92.30429	608.18793	-22.16019	1462.12866	-684.80450	
38	0.370	-814.69287	128.50586	-611.80835	755.77588	125.73475	-588.89343	-745.33130	-73.84135	506.80664	668.68195	-92.29279	608.18671	-22.17472	1462.10291	-684.82001	
39	0.380	-814.66974	128.45731	-611.86249	755.78552	125.74525	-588.88483	-745.31787	-73.86427	506.82156	668.68005	-92.29764	608.16058	-22.16978	1462.12744	-684.81689	
40	0.390	-814.70679	128.49498	-611.82043	755.78870	125.73431	-588.87939	-744.99689	-74.13051	506.66324	668.67969	-92.30550	608.17920	-22.16732	1462.13611	-684.81177	
41	0.400	-814.67133	128.47121	-611.81860	755.76666	125.74345	-588.89789	-745.31531	-73.80554	506.83191	668.72467	-92.27462	608.14874	-22.16668	1462.08899	-684.83685	
42	0.410	-814.68756	128.47530	-611.81348	755.78674	125.73231	-588.87689	-744.96533	-74.13850	506.71796	668.70422	-92.27588	608.15039	-22.17169	1462.13977	-684.83093	
43	0.420	-814.72247	128.52997	-611.84015	755.74805	125.78168	-588.90338	-745.31696	-73.81226	506.82068	668.72852	-92.28744	608.15894	-22.17950	1462.11340	-684.82629	
44	0.430	-814.66779	128.47841	-611.82159	755.77307	125.72340	-588.89746	-745.29297	-73.82907	506.81967	668.63324	-92.29046	608.19049	-22.17070	1462.11426	-684.80994	
45	0.440	-814.69507	128.48337	-611.78748	755.73877	125.73559	-588.90167	-744.99713	-74.12749	506.66574	668.66895	-92.30506	608.19067	-22.14570	1462.12317	-684.80762	
46	0.450	-814.68109	128.46991	-611.85431	755.75922	125.73728	-588.90448	-745.35596	-73.86295	506.83466	668.66840	-92.31493	608.14709	-22.17908	1462.11255	-684.84497	
47	0.460	-814.64655	128.44225	-611.82037	755.79077	125.73730	-588.88641	-745.25989	-73.86608	506.80704	668.72205	-92.30862	608.14276	-22.15186	1462.13049	-684.82587	
48	0.470	-814.66895	128.46837	-611.83087	755.77264	125.72182	-588.89655	-745.28345	-73.81971	506.83530	668.69196	-92.31245	608.17664	-22.14748	1462.12634	-684.79694	
49	0.480	-814.67944	128.48088	-611.79590	755.77008	125.71911	-588.88361	-745.00635	-74.16769	506.67407	668.67944	-92.31785	608.16046	-22.20065	1462.10876	-684.80499	
50	0.490	-814.63452	128.44092	-611.83575	755.77478	125.73537	-588.89746	-745.30969	-73.83224	506.82263	668.66559	-92.29319	608.20453	-22.14482	1462.11755	-684.80359	
51	0.500	-814.67950	128.45680	-611.83911	755.78711	125.71214	-588.88629	-744.97144	-74.20776	506.74008	668.63245	-92.29360	608.17853	-22.20639	1462.09363	-684.79163	
52	0.510	-814.69598	128.49110	-611.82550	755.76898	125.72723	-588.88074	-745.30640	-73.84373	506.81052	668.66229	-92.30753	608.15582	-22.12475	1462.11633	-684.78973	
53	0.520	-814.69031	128.46234	-611.84015	755.77466	125.73993	-588.89734	-745.28845	-73.82568	506.81052	668.67480	-92.30002	608.17621	-22.18785	1462.11975	-684.80457	
54	0.530	-814.68378	128.46719	-611.83264	755.77484	125.74294	-588.89526	-744.95221	-74.16392	506.68338	668.70490	-92.29815	608.16681	-22.15225	1462.15112	-684.81793	
55	0.540	-814.65540	128.45982	-611.82599	755.77362	125.72392	-588.89453	-744.94623	-74.21693	506.68890	668.71503	-92.30122	608.18927	-22.15483	1462.11682	-684.82068	
56	0.550	-814.67908	128.46124	-611.77667	755.76917	125.73082	-588.90497	-745.27582	-73.84300	506.83920	668.72662	-92.27644	608.20734	-22.16821	1462.11658	-684.79645	
57	0.560	-814.66382	128.44356	-611.80621	755.76086	125.72620	-588.88184	-745.30731	-73.85101	506.82825	668.64490	-92.30780	608.16302	-22.19376	1462.10498	-684.81433	
58	0.570	-814.67151	128.46062	-611.81299	755.78516	125.73114	-588.88104	-745.31464	-73.83302	506.82254	668.67938	-92.31802	608.13580	-22.11320	1462.13977	-684.81769	
59	0.580	-814.69897	128.48512	-611.77551	755.77753	125.74390	-588.89740	-745.30890	-73.81785	506.80521	668.66632	-92.31063	608.19299	-22.14539	1462.14929	-684.80408	
60	0.590	-814.72504	128.54280	-611.81348	755.78998	125.73904	-588.86975	-745.32880	-73.81702	506.81253	668.69128	-92.29607	608.17389	-22.14935	1462.13208	-684.81488	
61	0.600	-814.67633	128.47545	-611.79675	755.78973	125.75190	-588.88086	-745.32660	-73.83716	506.81357	668.70422	-92.29408	608.21417	-22.14909	1462.12219	-684.81079	
62	0.610	-814.66797	128.44614	-611.79498	755.78619	125.73820	-588.88110	-745.30505	-73.84290	506.83347	668.71729	-92.30839	608.19073	-22.20979	1462.08142	-684.82172	
63	0.620	-814.61584	128.42212	-611.79694	755.74084	125.73731	-588.91370	-745.28314	-73.88017	506.84753	668.64600	-92.31174	608.16296	-22.16505	1462.08704	-684.80835	
64	0.630	-814.65009	128.43178	-611.78467	755.78064	125.71160	-588.89948	-745.29321	-73.83473	506.83667	668.73822	-92.27470	608.17120	-22.16052	1462.08813	-684.83575	
65	0.640	-814.68463	128.50078	-611.81329	755.79480	125.73753	-588.88489	-745.31158	-73.84728	506.81076	668.70081	-92.28633	608.19617	-22.16130	1462.11096	-684.83386	
66	0.650	-814.66705	128.46320	-611.82031	755.78351	125.74139	-588.90125	-745.30878	-73.83727	506.80991	668.65918	-92.30753	608.20593	-22.19591	1462.12231	-684.81470	
67	0.660	-814.66675	128.45831	-611.81281	755.78485	125.71857	-588.91199	-745.33441	-73.84708	506.83075	668.69269	-92.29137	608.18829	-22.19547	1462.09888	-684.82800	
68	0.670	-814.65302	128.43723	-611.85181	755.78217	125.71473	-588.90906	-745.31122	-73.82599	506.82971	668.67419	-92.31360	608.16974	-22.16387	1462.07849	-684.80188	
69	0.680	-814.65314	128.46054	-611.84448	755.76941	125.73054	-588.91199	-745.29681	-73.83018	506.82642	668.66351	-92.30817	608.19550	-22.21853	1462.07593	-684.80579	
70	0.690	-814.69153	128.47995	-611.80402	755.77618	125.72926	-588.88818	-745.28796	-73.84961	506.80038	668.70081	-92.28030	608.15625	-22.17167	1462.09265	-684.84668	
71	0.700	-814.66870	128.46468	-611.81378	755.79480	125.71427	-588.88043	-745.29187	-73.83530	506.81964	668.69769	-92.29456	608.15942	-22.12701	1462.12915	-684.80634	
72	0.710	-814.68048	128.47421	-611.79504	755.80988	125.72828	-588.89954	-745.30408	-73.83624	506.79590	668.70691	-92.30103	608.15118	-22.17896	1462.11218	-684.80066	
